<?xml version="1.0" encoding="utf-8"?>
<!-- Generator: Adobe Illustrator 25.3.1, SVG Export Plug-In . SVG Version: 6.00 Build 0)  -->
<svg version="1.1" id="Слой_1" xmlns="http://www.w3.org/2000/svg" xmlns:xlink="http://www.w3.org/1999/xlink" x="0px" y="0px"
	 viewBox="0 0 162 30" style="enable-background:new 0 0 162 30;" xml:space="preserve">
<style type="text/css">
	.st0{fill:#5CB02E;}
	.st1{fill:#1A1A18;}
</style>
<g>
	<path class="st0" d="M32.5,24.5h-3.8V10.9h13.9v13.6h-3.8v-11h-6.2V24.5z"/>
	<path class="st0" d="M47.8,19.6c0-2.8,1.7-3.3,2.8-3.3c1,0,2.8,0.5,2.8,3.3c0,1.7-0.7,3.3-2.8,3.3C48.5,22.9,47.8,21.3,47.8,19.6z
		 M44.4,14.7v13.5H48v-4.6c1.2,1.3,3.1,1.4,3.6,1.4c3.4,0,5.5-2.2,5.5-5.3c0-3.3-2.1-5.3-5.4-5.3c-0.8,0-2.5,0.1-3.8,1.6h-0.1l0-1.2
		H44.4z"/>
	<path class="st0" d="M65.8,23.4c-1.3,1.2-2.6,1.6-4,1.6c-3.8,0-4-2.9-4-4.1v-6.2h3.5v5.7c0,2,0.7,2.5,2,2.5c2.2,0,2.4-2,2.4-2.7
		v-5.5h3.5v9.9h-3.5V23.4z"/>
	<path class="st0" d="M74.4,16.6h1.9c1,0,1.9,0.2,1.9,1c0,0.9-1.4,0.9-1.9,0.9h-1.8V16.6z M70.9,14.7v9.9h7c2.6,0,4.3-0.5,4.3-2.5
		c0-1.6-0.9-2.2-2.8-2.6v-0.1c1.3-0.2,2.4-1,2.4-2.3c0-2.4-2.8-2.4-3.9-2.4H70.9z M74.4,20.4h2.2c1.7,0,2,0.5,2,1.2c0,0.4-0.2,1-2,1
		h-2.2V20.4z"/>
	<path class="st0" d="M90.8,20.5c0,2-1.7,2.5-2.6,2.5c-0.7,0-1.8-0.2-1.8-1.1c0-1.1,1.3-1.3,2.1-1.4c1.4-0.2,1.3-0.1,2.3-0.5V20.5z
		 M86.7,17.9c0-1.5,1.5-1.6,2.2-1.6c0.4,0,1.9,0,1.9,1.3c0,0.1,0,0.2,0,0.3c-0.1,1-1,0.8-3.6,1.1c-2.1,0.3-4.4,0.8-4.4,3.1
		c0,0.8,0.4,2.9,4.1,2.9c1.4,0,3-0.4,4-1.3H91l0.3,1H95v-0.2c-0.7-0.1-0.7-0.8-0.7-1.9l0.1-4.5c0-1.1-0.1-3.7-5.4-3.7
		c-1.3,0-5.4,0.1-5.6,3.6H86.7z"/>
	<path class="st0" d="M94.8,16.6v-2h11.4v2h-3.9v7.9h-3.5v-7.9H94.8z"/>
	<path class="st0" d="M110.7,18.6h3.2c0.9,0,2.8,0.1,2.8,1.7c0,1.3-1.4,1.5-2.9,1.5h-3.1V18.6z M110.7,13.6h8.8v-2.6h-12.7v13.6h7.8
		c3.8,0,6.2-1.3,6.2-4.1c0-4.4-4.9-4.5-6.2-4.5h-3.9V13.6z"/>
	<path class="st0" d="M129.5,20.5c0,2-1.7,2.5-2.6,2.5c-0.7,0-1.8-0.2-1.8-1.1c0-1.1,1.3-1.3,2.1-1.4c1.4-0.2,1.3-0.1,2.3-0.5V20.5z
		 M125.4,17.9c0-1.5,1.5-1.6,2.2-1.6c0.4,0,1.9,0,1.9,1.3c0,0.1,0,0.2,0,0.3c-0.1,1-1,0.8-3.6,1.1c-2.1,0.3-4.4,0.8-4.4,3.1
		c0,0.8,0.3,2.9,4.1,2.9c1.4,0,3-0.4,4-1.3h0.1l0.3,1h3.7v-0.2c-0.7-0.1-0.7-0.8-0.7-1.9l0.1-4.5c0-1.1-0.1-3.7-5.4-3.7
		c-1.3,0-5.4,0.1-5.6,3.6H125.4z"/>
	<path class="st0" d="M138.1,24.5h-3.5v-9.9h3.5v3.7h4.3v-3.7h3.5v9.9h-3.5v-4.2h-4.3V24.5z"/>
	<path class="st0" d="M154.9,14.7h3.9l-4.9,4.6l5.1,5.2h-4.2l-3.8-4.3H151v4.3h-3.5v-9.9h3.5v4h0.1L154.9,14.7z"/>
	<g>
		<rect x="2.9" y="15.7" class="st1" width="8.9" height="8.9"/>
		<path class="st0" d="M3,1.9v11.1h2.3c6.2,0,9.3,3.1,9.3,9.3v2.3h11.1V1.9H3z M21,6.6c0,3,0,10.3,0,13.3c-0.8,0-1,0-1.8,0
			C18.4,13.3,14.2,9.2,7.7,8.4c0-0.8,0-1,0-1.8C10.7,6.6,18,6.6,21,6.6z"/>
	</g>
</g>
</svg>
