<?xml version="1.0" standalone="no"?>
<!DOCTYPE svg PUBLIC "-//W3C//DTD SVG 20010904//EN"
 "http://www.w3.org/TR/2001/REC-SVG-20010904/DTD/svg10.dtd">
<svg version="1.0" xmlns="http://www.w3.org/2000/svg"
 width="126.000000pt" height="145.000000pt" viewBox="0 0 126.000000 145.000000"
 preserveAspectRatio="xMidYMid meet">

<g transform="translate(0.000000,145.000000) scale(0.100000,-0.100000)"
fill="#000000" stroke="none">
<path d="M440 1369 c-111 -42 -136 -49 -195 -58 -35 -5 -47 -9 -29 -10 50 -2
133 17 216 49 43 17 91 30 107 30 71 0 110 -50 55 -70 -36 -14 -67 -12 -90 5
-16 13 -17 16 -4 25 8 5 10 10 4 10 -6 0 -17 -6 -23 -14 -25 -30 62 -58 119
-37 23 8 43 7 75 -1 54 -15 110 -1 110 27 0 10 -7 21 -15 23 -13 4 -13 3 -2
-11 11 -13 10 -17 -7 -26 -47 -25 -117 -3 -109 34 8 47 80 44 226 -9 41 -15
102 -29 140 -31 l67 -4 -64 10 c-35 5 -100 24 -145 42 -81 32 -81 32 -236 28
-14 0 -52 1 -85 4 -46 4 -73 0 -115 -16z"/>
<path d="M135 1350 c-9 -15 14 -40 34 -39 13 1 13 2 -1 6 -16 4 -22 15 -19 36
2 10 -7 9 -14 -3z"/>
<path d="M1120 1348 c0 -9 -8 -22 -17 -27 -10 -6 -13 -11 -7 -11 22 0 44 25
34 40 -8 13 -10 13 -10 -2z"/>
<path d="M134 1245 c-4 -9 2 -39 12 -67 14 -39 25 -54 44 -59 23 -6 22 -7 -7
-8 -28 -1 -33 -5 -33 -26 0 -18 7 -26 26 -31 56 -14 96 29 109 119 8 54 25 53
25 -2 0 -52 22 -69 87 -69 29 0 57 5 62 12 5 6 6 40 2 76 -6 64 -6 65 -36 65
-28 0 -30 -3 -36 -45 -6 -42 -6 -42 -7 -9 -1 19 -7 40 -14 47 -16 16 -55 15
-61 0 -3 -10 -7 -10 -20 0 -9 8 -26 12 -39 10 -19 -2 -24 -11 -29 -48 l-6 -45
-1 41 c-2 43 -13 54 -53 54 -11 0 -22 -7 -25 -15z"/>
<path d="M477 1254 c-9 -10 4 -127 16 -142 6 -7 22 -12 36 -10 23 3 25 7 25
48 -1 38 0 39 3 8 5 -43 24 -62 55 -55 20 5 23 12 22 54 l-2 48 6 -44 c8 -50
32 -72 59 -55 15 9 17 23 15 70 -2 33 -8 64 -14 71 -11 14 -137 14 -155 0 -9
-6 -13 -6 -13 2 0 12 -42 15 -53 5z"/>
<path d="M729 1248 c-4 -40 5 -125 14 -136 5 -7 22 -12 36 -10 24 3 25 6 24
53 l-1 50 7 -43 c9 -51 21 -65 52 -60 21 3 23 8 23 48 -1 38 0 39 3 8 5 -45
24 -62 58 -54 25 6 26 8 19 69 -4 34 -11 67 -16 74 -11 14 -138 15 -155 1 -9
-7 -13 -7 -13 1 0 15 -50 14 -51 -1z"/>
<path d="M975 1250 c-18 -29 25 -127 57 -133 17 -3 14 -5 -9 -6 -28 -1 -33 -5
-33 -26 0 -18 7 -26 26 -31 58 -15 92 27 112 133 10 59 0 77 -40 71 -19 -2
-24 -11 -29 -48 l-6 -45 -1 41 c-2 43 -13 54 -52 54 -10 0 -22 -5 -25 -10z"/>
<path d="M495 1080 c-3 -5 3 -43 14 -84 18 -74 18 -75 0 -81 -27 -9 -49 -33
-49 -55 0 -27 -43 -70 -70 -70 -17 0 -21 4 -15 18 15 36 11 46 -22 48 -37 2
-47 -14 -33 -54 19 -51 32 -70 56 -81 20 -9 23 -14 14 -30 -12 -23 -3 -76 18
-108 17 -27 10 -53 -15 -53 -31 0 -64 -30 -61 -53 3 -24 48 -38 48 -15 1 7 16
-4 35 -26 22 -25 40 -36 50 -33 21 9 19 21 -11 57 -19 22 -24 34 -16 42 14 14
72 -30 72 -56 0 -11 7 -27 15 -36 14 -16 13 -20 -10 -49 l-27 -31 26 -11 c34
-16 52 -7 59 30 6 28 10 31 45 31 34 0 39 -3 51 -35 13 -36 28 -42 63 -24 20
11 20 11 -4 36 l-23 25 27 -7 c33 -8 68 10 68 35 0 24 -18 36 -33 21 -17 -17
-27 -13 -27 10 0 21 36 58 57 59 6 0 21 -16 32 -36 14 -23 27 -34 38 -32 41 8
17 69 -34 89 l-23 8 19 33 c11 18 25 52 32 76 7 23 16 42 21 42 5 0 6 -10 3
-22 -12 -39 -11 -43 19 -46 42 -5 52 10 36 58 -15 44 -60 90 -89 90 -13 0 -18
8 -19 31 -1 34 -25 67 -60 80 l-22 9 27 55 c20 40 24 58 16 66 -17 17 -31 3
-63 -67 -16 -36 -38 -76 -49 -90 -19 -24 -20 -24 -26 -4 -4 11 -24 32 -45 46
-35 24 -40 32 -60 115 -21 83 -37 107 -55 79z m49 -117 c14 -56 26 -108 25
-115 -1 -16 -59 191 -59 211 0 29 9 3 34 -96z m185 -92 c-29 -61 -54 -110 -56
-108 -1 2 20 54 49 115 28 62 53 110 55 108 3 -2 -19 -54 -48 -115z m-187 7
c4 -29 -12 -76 -29 -83 -8 -3 -20 9 -30 30 -16 33 -15 36 2 55 24 27 53 26 57
-2z m63 -4 c18 -7 50 -64 36 -64 -5 0 -12 9 -16 19 -3 11 -15 23 -26 26 -10 4
-19 11 -19 16 0 11 3 11 25 3z m183 -28 c19 -11 32 -50 25 -75 -7 -27 -23 -27
-23 0 0 32 -19 59 -40 59 -20 0 -26 11 -14 23 8 8 34 4 52 -7z m-451 -28 c-3
-8 -6 -5 -6 6 -1 11 2 17 5 13 3 -3 4 -12 1 -19z m273 1 c0 -6 -4 -7 -10 -4
-5 3 -10 11 -10 16 0 6 5 7 10 4 6 -3 10 -11 10 -16z m160 -25 c0 -12 -4 -12
-19 -2 -11 7 -18 15 -15 20 7 11 34 -3 34 -18z m-292 4 c19 -19 14 -27 -10
-20 -20 5 -21 3 -10 -10 10 -13 9 -16 -7 -21 -11 -3 -22 0 -25 7 -2 6 -5 3 -5
-6 -1 -23 -41 -24 -41 -2 0 8 -4 13 -9 9 -6 -3 -15 4 -21 15 -11 20 -10 21 9
11 30 -17 60 -13 73 9 15 23 29 25 46 8z m82 -7 c0 -5 -16 -18 -35 -30 -19
-11 -35 -16 -35 -11 0 6 15 19 33 30 37 23 37 23 37 11z m100 0 c0 -10 -24
-21 -43 -21 -7 0 -3 7 7 15 22 17 36 19 36 6z m80 -11 c12 -8 11 -10 -7 -10
-12 0 -25 5 -28 10 -8 13 15 13 35 0z m-130 -35 c13 -15 10 -85 -5 -118 -7
-16 -3 -18 31 -15 36 3 39 5 40 36 2 45 27 70 68 68 33 -1 57 -18 69 -48 11
-29 -15 -33 -35 -5 -22 30 -49 35 -68 12 -14 -17 -7 -19 20 -5 13 7 21 5 31
-6 11 -14 10 -18 -6 -30 -18 -13 -17 -14 7 -14 15 0 39 5 53 10 26 10 27 9 21
-16 -11 -41 -64 -112 -97 -129 -28 -15 -31 -14 -64 11 -35 27 -65 27 -65 0 0
-8 9 -21 20 -29 24 -17 15 -29 -16 -21 -17 4 -24 2 -24 -7 0 -10 13 -14 42
-14 65 0 62 -20 -2 -23 -56 -2 -100 12 -108 37 -3 10 3 11 29 6 41 -9 33 1
-29 35 -45 24 -47 27 -48 69 -1 29 -7 48 -17 56 -27 19 -20 23 31 19 26 -2 41
-1 35 2 -16 7 -17 36 -1 52 16 16 23 15 42 -4 20 -19 21 -34 2 -34 -17 0 -26
-22 -26 -61 0 -22 5 -29 19 -29 11 0 23 5 26 10 3 6 1 10 -4 10 -6 0 -11 5
-11 11 0 5 4 7 10 4 11 -7 8 84 -4 103 -18 29 -73 6 -89 -38 -4 -11 -6 -9 -6
5 -1 23 27 69 55 90 25 19 58 19 74 0z m40 11 c0 -3 -4 -8 -10 -11 -5 -3 -10
-1 -10 4 0 6 5 11 10 11 6 0 10 -2 10 -4z m147 -26 c17 -10 37 -28 43 -39 16
-32 0 -25 -31 12 -24 28 -33 32 -77 32 -28 0 -48 3 -45 8 9 14 79 7 110 -13z
m83 -10 c0 -12 5 -17 14 -14 7 3 16 -2 19 -10 8 -19 6 -19 -30 -4 -45 20 -58
48 -23 48 13 0 20 -7 20 -20z m-410 -1 c-13 -6 -33 -17 -42 -26 -10 -9 -18
-11 -18 -5 0 20 31 42 58 41 l27 0 -25 -10z m-5 -29 c-3 -5 -11 -10 -16 -10
-6 0 -7 5 -4 10 3 6 11 10 16 10 6 0 7 -4 4 -10z m195 -21 c0 -6 -4 -7 -10 -4
-5 3 -10 11 -10 16 0 6 5 7 10 4 6 -3 10 -11 10 -16z m-206 -15 c4 -12 1 -14
-14 -9 -28 9 -27 -30 0 -45 11 -6 20 -21 20 -34 0 -13 -9 -31 -20 -41 -11 -10
-20 -26 -20 -35 0 -9 9 -25 20 -35 11 -10 20 -25 20 -34 0 -19 -59 48 -60 68
0 8 12 28 27 43 l27 28 -27 28 c-29 31 -34 51 -15 70 17 17 35 15 42 -4z m473
-16 c-3 -8 -6 -5 -6 6 -1 11 2 17 5 13 3 -3 4 -12 1 -19z m-282 2 c3 -5 1 -10
-4 -10 -6 0 -11 5 -11 10 0 6 2 10 4 10 3 0 8 -4 11 -10z m56 -192 c41 -45 50
-50 63 -38 18 14 32 8 21 -9 -3 -6 -19 -11 -35 -11 -23 0 -35 8 -56 40 -14 22
-35 42 -45 45 -11 4 -19 11 -19 16 0 21 26 6 71 -43z m-334 16 c-3 -3 -12 -4
-19 -1 -8 3 -5 6 6 6 11 1 17 -2 13 -5z"/>
<path d="M684 616 c-9 -38 -1 -61 24 -64 23 -4 30 12 11 24 -8 5 -8 9 1 14 16
10 3 50 -15 50 -8 0 -17 -11 -21 -24z"/>
<path d="M630 550 c0 -5 5 -10 10 -10 6 0 10 5 10 10 0 6 -4 10 -10 10 -5 0
-10 -4 -10 -10z"/>
<path d="M1040 985 c7 -9 10 -19 6 -22 -4 -4 -12 -1 -17 7 -9 13 -10 13 -6 0
2 -8 13 -14 23 -12 10 1 27 3 36 4 9 1 15 6 12 10 -3 4 -11 5 -19 1 -8 -3 -15
-1 -15 5 0 5 -7 13 -16 16 -14 5 -15 4 -4 -9z"/>
<path d="M979 963 c-1 -5 0 -18 0 -30 2 -13 -5 -23 -16 -26 -10 -3 16 -5 58
-6 59 -1 78 2 82 14 4 8 2 17 -4 20 -5 4 -8 1 -7 -5 2 -7 -5 -14 -15 -15 -9
-2 -15 1 -12 5 3 5 1 11 -5 15 -5 3 -10 -1 -10 -9 0 -26 -49 -20 -59 7 -5 14
-4 25 3 29 8 6 7 8 -1 8 -7 0 -13 -3 -14 -7z"/>
<path d="M127 943 c-8 -12 5 -28 23 -28 8 0 14 -5 13 -10 -1 -6 10 -11 25 -12
17 0 20 1 8 4 -15 4 -16 7 -5 15 12 8 11 9 -1 5 -8 -2 -25 4 -36 15 -12 11
-24 16 -27 11z"/>
<path d="M955 930 c-3 -5 -1 -10 4 -10 6 0 11 5 11 10 0 6 -2 10 -4 10 -3 0
-8 -4 -11 -10z"/>
<path d="M108 893 c7 -3 16 -2 19 1 4 3 -2 6 -13 5 -11 0 -14 -3 -6 -6z"/>
<path d="M107 868 c2 -5 33 -8 68 -8 35 0 66 3 68 8 3 4 -28 7 -68 7 -40 0
-71 -3 -68 -7z"/>
<path d="M1008 833 c12 -2 30 -2 40 0 9 3 -1 5 -23 4 -22 0 -30 -2 -17 -4z"/>
<path d="M980 441 c-39 -39 -40 -80 -2 -122 22 -24 36 -31 66 -31 46 0 90 35
80 65 -4 13 -2 17 5 13 7 -5 11 1 11 14 0 14 -4 19 -12 14 -8 -5 -9 -2 -4 12
18 43 18 48 4 30 -10 -13 -21 -17 -34 -12 -16 6 -15 4 4 -14 25 -23 23 -50 -6
-82 -22 -25 -76 -23 -102 4 -26 28 -25 58 1 92 17 22 29 27 55 24 18 -1 38 2
44 8 7 7 -4 11 -35 13 -39 2 -50 -2 -75 -28z"/>
<path d="M147 443 c-3 -5 -1 -17 4 -28 6 -17 7 -16 6 8 -1 28 -3 32 -10 20z"/>
<path d="M182 425 c0 -16 2 -22 5 -12 2 9 2 23 0 30 -3 6 -5 -1 -5 -18z"/>
<path d="M213 428 c1 -16 5 -28 9 -28 10 0 9 9 -2 35 -8 17 -8 16 -7 -7z"/>
<path d="M1017 403 c-3 -5 2 -17 10 -28 13 -16 15 -17 10 -2 -4 9 -2 17 3 17
6 0 10 -10 11 -22 1 -22 1 -22 9 2 7 21 8 22 9 5 1 -17 3 -17 11 -5 15 23 12
33 -9 27 -10 -2 -25 0 -34 4 -9 5 -18 6 -20 2z"/>
<path d="M90 360 c0 -5 12 -22 28 -38 15 -15 18 -18 8 -5 l-19 23 79 0 79 -1
-24 -20 c-13 -11 -22 -22 -19 -25 7 -6 58 53 58 67 0 5 -43 9 -95 9 -56 0 -95
-4 -95 -10z m143 -7 c-23 -2 -64 -2 -90 0 -26 2 -7 3 42 3 50 0 71 -1 48 -3z"/>
<path d="M96 262 c-9 -15 7 -132 20 -143 8 -6 24 -9 36 -6 20 5 23 12 22 54
l-2 48 6 -44 c13 -82 71 -85 74 -4 l1 48 6 -44 c7 -50 31 -73 58 -55 15 9 17
23 15 70 -2 33 -8 64 -14 71 -11 14 -137 14 -155 0 -9 -6 -13 -6 -13 2 0 12
-46 15 -54 3z"/>
<path d="M347 263 c-12 -11 5 -117 21 -135 16 -19 62 -25 62 -8 0 6 8 5 20 -2
15 -10 25 -10 38 -2 14 9 16 23 13 75 -2 35 -5 67 -8 72 -2 4 -17 7 -34 7 -28
0 -29 -2 -31 -47 -1 -41 -2 -43 -5 -13 -3 19 -9 41 -15 47 -11 14 -50 18 -61
6z"/>
<path d="M516 262 c-9 -15 7 -132 20 -143 8 -6 24 -9 36 -6 20 5 23 12 22 49
-1 38 -1 38 3 6 5 -43 24 -62 55 -55 20 5 23 12 22 54 l-2 48 6 -44 c8 -50 32
-72 59 -55 15 9 17 23 15 70 -2 33 -8 64 -14 71 -11 14 -137 14 -155 0 -9 -6
-13 -6 -13 2 0 12 -46 15 -54 3z"/>
<path d="M769 258 c-5 -45 5 -125 16 -137 8 -8 23 -11 37 -8 20 5 23 12 22 49
-1 38 -1 38 3 6 5 -43 24 -62 55 -55 20 5 23 12 22 49 -1 38 -1 38 3 6 5 -45
24 -62 58 -54 25 6 26 8 19 69 -4 34 -11 67 -16 74 -11 14 -138 15 -155 1 -9
-7 -13 -7 -13 1 0 15 -50 14 -51 -1z"/>
<path d="M1015 260 c-16 -26 24 -126 52 -133 10 -2 7 -4 -7 -3 -20 1 -26 -4
-28 -26 -3 -22 2 -29 23 -34 59 -15 93 26 113 133 10 59 0 77 -40 71 -19 -2
-24 -11 -29 -48 l-6 -45 -1 41 c-2 43 -13 54 -52 54 -10 0 -22 -5 -25 -10z"/>
</g>
</svg>
